<svg aria-hidden="true" style="position: absolute; width: 0; height: 0; overflow: hidden;" version="1.1" xmlns="http://www.w3.org/2000/svg" xmlns:xlink="http://www.w3.org/1999/xlink">
<defs>
<symbol id="icon-mic" viewBox="0 0 24 24">
<title>mic</title>
<path d="M12 16c2.2 0 4-1.8 4-4v-8c0-2.2-1.8-4-4-4s-4 1.8-4 4v8c0 2.2 1.8 4 4 4zM10 4c0-1.1 0.9-2 2-2s2 0.9 2 2v8c0 1.1-0.9 2-2 2s-2-0.9-2-2v-8z"></path>
<path d="M19 9c-0.6 0-1 0.4-1 1v2c0 3.3-2.7 6-6 6s-6-2.7-6-6v-2c0-0.6-0.4-1-1-1s-1 0.4-1 1v2c0 4.1 3.1 7.4 7 7.9v2.1h-3c-0.6 0-1 0.4-1 1s0.4 1 1 1h8c0.6 0 1-0.4 1-1s-0.4-1-1-1h-3v-2.1c3.9-0.5 7-3.9 7-7.9v-2c0-0.6-0.4-1-1-1z"></path>
</symbol>
<symbol id="icon-mic-off" viewBox="0 0 24 24">
<title>mic-off</title>
<path d="M23.7 22.3l-5.9-5.9c0-0.1-0.1-0.1-0.1-0.2 0 0-0.1-0.1-0.1-0.1l-7.9-7.8c0 0 0 0 0 0l-8-8c-0.4-0.4-1-0.4-1.4 0s-0.4 1 0 1.4l7.7 7.7v2.6c0 1.1 0.4 2.1 1.2 2.8 0.7 0.8 1.7 1.2 2.8 1.2 0 0 0 0 0 0 0.7 0 1.4-0.2 2-0.6l1.5 1.5c-1 0.7-2.1 1.1-3.3 1.1-0.1 0-0.1 0-0.2 0s-0.1 0-0.2 0c-1.5 0-2.9-0.6-4-1.7-1.2-1.1-1.8-2.7-1.8-4.3v-2c0-0.6-0.4-1-1-1s-1 0.4-1 1v2c0 2.2 0.9 4.3 2.4 5.8 1.3 1.3 2.9 2 4.6 2.2v2h-3c-0.6 0-1 0.4-1 1s0.4 1 1 1h8c0.6 0 1-0.4 1-1s-0.4-1-1-1h-3v-2c1.4-0.2 2.8-0.7 3.9-1.6l5.4 5.4c0.2 0.2 0.5 0.3 0.7 0.3s0.5-0.1 0.7-0.3c0.4-0.5 0.4-1.1 0-1.5zM12 14c0 0 0 0 0 0-0.5 0-1-0.2-1.4-0.6s-0.6-0.9-0.6-1.4v-0.6l2.5 2.5c-0.2 0.1-0.3 0.1-0.5 0.1z"></path>
<path d="M8.9 4.4c0.5 0.1 1-0.3 1.1-0.8 0.2-0.9 1-1.6 2-1.6 0 0 0 0 0 0 0.5 0 1 0.2 1.4 0.6s0.6 0.9 0.6 1.4v5.3c0 0.6 0.4 1 1 1s1-0.4 1-1v-5.3c0-1.1-0.4-2.1-1.2-2.8-0.7-0.8-1.7-1.2-2.8-1.2 0 0 0 0 0 0-1.9 0-3.5 1.3-3.9 3.2-0.1 0.5 0.2 1.1 0.8 1.2z"></path>
<path d="M18.7 14.2c0.1 0 0.1 0 0.2 0 0.5 0 0.9-0.3 1-0.8s0.1-0.9 0.1-1.4v-2c0-0.6-0.4-1-1-1s-1 0.4-1 1v2c0 0.4 0 0.7-0.1 1.1-0.1 0.5 0.3 1 0.8 1.1z"></path>
</symbol>
<symbol id="icon-music" viewBox="0 0 24 24">
<title>music</title>
<path d="M21.6 2.2c-0.2-0.2-0.5-0.2-0.8-0.2l-12 2c-0.4 0.1-0.8 0.5-0.8 1v11h-3c-1.7 0-3 1.3-3 3s1.3 3 3 3h2c1.7 0 3-1.3 3-3v-13.2l10-1.7v9.9h-3c-1.7 0-3 1.3-3 3s1.3 3 3 3h2c1.7 0 3-1.3 3-3v-14c0-0.3-0.1-0.6-0.4-0.8zM8 19c0 0.6-0.4 1-1 1h-2c-0.6 0-1-0.4-1-1s0.4-1 1-1h3v1zM20 17c0 0.6-0.4 1-1 1h-2c-0.6 0-1-0.4-1-1s0.4-1 1-1h3v1z"></path>
</symbol>
<symbol id="icon-pause" viewBox="0 0 24 24">
<title>pause</title>
<path d="M10 3h-4c-0.6 0-1 0.4-1 1v16c0 0.6 0.4 1 1 1h4c0.6 0 1-0.4 1-1v-16c0-0.6-0.4-1-1-1zM9 19h-2v-14h2v14z"></path>
<path d="M18 3h-4c-0.6 0-1 0.4-1 1v16c0 0.6 0.4 1 1 1h4c0.6 0 1-0.4 1-1v-16c0-0.6-0.4-1-1-1zM17 19h-2v-14h2v14z"></path>
</symbol>
<symbol id="icon-play" viewBox="0 0 24 24">
<title>play</title>
<path d="M19.5 11.2l-14-9c-0.3-0.2-0.7-0.2-1 0-0.3 0.1-0.5 0.4-0.5 0.8v18c0 0.4 0.2 0.7 0.5 0.9 0.2 0.1 0.3 0.1 0.5 0.1s0.4-0.1 0.5-0.2l14-9c0.3-0.2 0.5-0.5 0.5-0.8s-0.2-0.7-0.5-0.8zM6 19.2v-14.4l11.2 7.2-11.2 7.2z"></path>
</symbol>
<symbol id="icon-play-circle" viewBox="0 0 24 24">
<title>play-circle</title>
<path d="M12 1c-6.1 0-11 4.9-11 11s4.9 11 11 11 11-4.9 11-11-4.9-11-11-11zM12 21c-5 0-9-4-9-9s4-9 9-9c5 0 9 4 9 9s-4 9-9 9z"></path>
<path d="M16.6 11.2l-6-4c-0.3-0.2-0.7-0.2-1 0-0.4 0.1-0.6 0.4-0.6 0.8v8c0 0.4 0.2 0.7 0.5 0.9 0.2 0.1 0.3 0.1 0.5 0.1s0.4-0.1 0.6-0.2l6-4c0.3-0.2 0.4-0.5 0.4-0.8s-0.2-0.6-0.4-0.8zM11 14.1v-4.2l3.2 2.1-3.2 2.1z"></path>
</symbol>
<symbol id="icon-plus" viewBox="0 0 24 24">
<title>plus</title>
<path d="M19 11h-6v-6c0-0.6-0.4-1-1-1s-1 0.4-1 1v6h-6c-0.6 0-1 0.4-1 1s0.4 1 1 1h6v6c0 0.6 0.4 1 1 1s1-0.4 1-1v-6h6c0.6 0 1-0.4 1-1s-0.4-1-1-1z"></path>
</symbol>
<symbol id="icon-plus-circle" viewBox="0 0 24 24">
<title>plus-circle</title>
<path d="M12 1c-6.1 0-11 4.9-11 11s4.9 11 11 11 11-4.9 11-11-4.9-11-11-11zM12 21c-5 0-9-4-9-9s4-9 9-9c5 0 9 4 9 9s-4 9-9 9z"></path>
<path d="M16 11h-3v-3c0-0.6-0.4-1-1-1s-1 0.4-1 1v3h-3c-0.6 0-1 0.4-1 1s0.4 1 1 1h3v3c0 0.6 0.4 1 1 1s1-0.4 1-1v-3h3c0.6 0 1-0.4 1-1s-0.4-1-1-1z"></path>
</symbol>
<symbol id="icon-plus-square" viewBox="0 0 24 24">
<title>plus-square</title>
<path d="M19 2h-14c-1.7 0-3 1.3-3 3v14c0 1.7 1.3 3 3 3h14c1.7 0 3-1.3 3-3v-14c0-1.7-1.3-3-3-3zM20 19c0 0.6-0.4 1-1 1h-14c-0.6 0-1-0.4-1-1v-14c0-0.6 0.4-1 1-1h14c0.6 0 1 0.4 1 1v14z"></path>
<path d="M16 11h-3v-3c0-0.6-0.4-1-1-1s-1 0.4-1 1v3h-3c-0.6 0-1 0.4-1 1s0.4 1 1 1h3v3c0 0.6 0.4 1 1 1s1-0.4 1-1v-3h3c0.6 0 1-0.4 1-1s-0.4-1-1-1z"></path>
</symbol>
<symbol id="icon-radio" viewBox="0 0 24 24">
<title>radio</title>
<path d="M12 9c-1.7 0-3 1.3-3 3s1.3 3 3 3 3-1.3 3-3-1.3-3-3-3zM12 13c-0.6 0-1-0.4-1-1s0.4-1 1-1 1 0.4 1 1-0.4 1-1 1z"></path>
<path d="M19.8 4.2c-0.4-0.4-1-0.4-1.4 0s-0.4 1 0 1.4c3.5 3.5 3.5 9.2 0 12.7-0.4 0.4-0.4 1 0 1.4 0.2 0.2 0.5 0.3 0.7 0.3s0.5-0.1 0.7-0.3c4.3-4.2 4.3-11.2 0-15.5z"></path>
<path d="M5.6 5.6c0.4-0.4 0.4-1 0-1.4s-1-0.4-1.4 0c-4.3 4.3-4.3 11.3 0 15.6 0.2 0.2 0.5 0.3 0.7 0.3s0.5-0.1 0.7-0.3c0.4-0.4 0.4-1 0-1.4-3.5-3.5-3.5-9.3 0-12.8z"></path>
<path d="M7 12c0-1.3 0.5-2.6 1.5-3.5 0 0 0 0 0 0 0.4-0.4 0.3-1 0-1.4-0.4-0.4-1-0.4-1.4 0 0 0 0 0 0 0-2.7 2.7-2.7 7.2 0 9.9 0.2 0.2 0.5 0.3 0.7 0.3s0.5-0.1 0.7-0.3c0.4-0.4 0.4-1 0-1.4-1-1-1.5-2.3-1.5-3.6z"></path>
<path d="M16.9 7.1c-0.4-0.4-1-0.4-1.4 0s-0.4 1 0 1.4c2 1.9 2 5.1 0.1 7-0.1 0.1-0.2 0.2-0.3 0.3-0.2 0.5 0 1.1 0.4 1.3 0.1 0.1 0.3 0.1 0.4 0.1 0.3 0 0.5-0.1 0.7-0.3 2.9-2.7 2.9-7.1 0.1-9.8z"></path>
</symbol>
<symbol id="icon-refresh-cw" viewBox="0 0 24 24">
<title>refresh-cw</title>
<path d="M20.8 14.1c-0.5-0.2-1.1 0.1-1.3 0.6-0.4 1.1-1 2.2-1.9 3-1.4 1.5-3.5 2.3-5.6 2.3 0 0 0 0 0 0-2.1 0-4.1-0.8-5.7-2.4l-2.8-2.6h3.5c0.6 0 1-0.4 1-1s-0.4-1-1-1h-6c0 0 0 0 0 0-0.1 0-0.2 0-0.2 0.1 0 0-0.1 0-0.1 0s-0.1 0-0.1 0.1c-0.1 0-0.2 0.1-0.2 0.2 0 0 0 0 0 0s0 0.1-0.1 0.1c0 0.1-0.1 0.1-0.1 0.2s0 0.1 0 0.2c0 0 0 0.1 0 0.1v6c0 0.6 0.4 1 1 1s1-0.4 1-1v-3.7l2.9 2.8c1.7 1.9 4.2 2.9 6.9 2.9 0 0 0 0 0 0 2.7 0 5.2-1 7.1-2.9 1-1 1.9-2.3 2.4-3.7 0.1-0.6-0.2-1.2-0.7-1.3z"></path>
<path d="M24 10.1c0 0 0-0.1 0-0.1v-6c0-0.6-0.4-1-1-1s-1 0.4-1 1v3.7l-2.9-2.8c-1-1-2.3-1.9-3.7-2.4-2.6-0.8-5.3-0.7-7.7 0.5-2.4 1.1-4.2 3.1-5.1 5.7-0.2 0.5 0.1 1.1 0.6 1.2 0.5 0.2 1.1-0.1 1.3-0.6 0.7-2 2.2-3.6 4.1-4.6 1.9-0.9 4.1-1 6.1-0.3 1.1 0.4 2.2 1 3 1.9l2.8 2.7h-3.5c-0.6 0-1 0.4-1 1s0.4 1 1 1h6c0.1 0 0.3 0 0.4-0.1 0 0 0 0 0 0 0.1-0.1 0.2-0.1 0.3-0.2 0 0 0 0 0 0s0-0.1 0.1-0.1c0-0.1 0.1-0.1 0.1-0.2 0.1-0.1 0.1-0.2 0.1-0.3z"></path>
</symbol>
<symbol id="icon-repeat" viewBox="0 0 24 24">
<title>repeat</title>
<path d="M3 12c0.6 0 1-0.4 1-1v-2c0-1.7 1.3-3 3-3h11.6l-2.3 2.3c-0.4 0.4-0.4 1 0 1.4 0.2 0.2 0.4 0.3 0.7 0.3s0.5-0.1 0.7-0.3l4-4c0.1-0.1 0.2-0.2 0.2-0.3 0.1-0.2 0.1-0.5 0-0.8-0.1-0.1-0.1-0.2-0.2-0.3l-4-4c-0.4-0.4-1-0.4-1.4 0s-0.4 1 0 1.4l2.3 2.3h-11.6c-2.8 0-5 2.2-5 5v2c0 0.6 0.4 1 1 1z"></path>
<path d="M21 12c-0.6 0-1 0.4-1 1v2c0 1.7-1.3 3-3 3h-11.6l2.3-2.3c0.4-0.4 0.4-1 0-1.4s-1-0.4-1.4 0l-4 4c-0.1 0.1-0.2 0.2-0.2 0.3-0.1 0.2-0.1 0.5 0 0.8 0.1 0.1 0.1 0.2 0.2 0.3l4 4c0.2 0.2 0.4 0.3 0.7 0.3s0.5-0.1 0.7-0.3c0.4-0.4 0.4-1 0-1.4l-2.3-2.3h11.6c2.8 0 5-2.2 5-5v-2c0-0.6-0.4-1-1-1z"></path>
</symbol>
<symbol id="icon-rewind" viewBox="0 0 24 24">
<title>rewind</title>
<path d="M11.4 4.1c-0.3-0.2-0.8-0.1-1.1 0.1l-9 7c-0.2 0.2-0.3 0.5-0.3 0.8s0.1 0.6 0.4 0.8l9 7c0.2 0.1 0.4 0.2 0.6 0.2 0.1 0 0.3 0 0.4-0.1 0.3-0.2 0.6-0.5 0.6-0.9v-14c0-0.4-0.2-0.7-0.6-0.9zM10 17l-6.4-5 6.4-5v10z"></path>
<path d="M22.4 4.1c-0.3-0.2-0.8-0.1-1.1 0.1l-9 7c-0.2 0.2-0.3 0.5-0.3 0.8s0.1 0.6 0.4 0.8l9 7c0.2 0.1 0.4 0.2 0.6 0.2 0.1 0 0.3 0 0.4-0.1 0.3-0.2 0.6-0.5 0.6-0.9v-14c0-0.4-0.2-0.7-0.6-0.9zM21 17l-6.4-5 6.4-5v10z"></path>
</symbol>
<symbol id="icon-save" viewBox="0 0 24 24">
<title>save</title>
<path d="M21.7 7.3l-5-5c-0.2-0.2-0.4-0.3-0.7-0.3h-11c-1.7 0-3 1.3-3 3v14c0 1.7 1.3 3 3 3h14c1.7 0 3-1.3 3-3v-11c0-0.3-0.1-0.5-0.3-0.7zM16 20h-8v-6h8v6zM20 19c0 0.6-0.4 1-1 1h-1v-7c0-0.6-0.4-1-1-1h-10c-0.6 0-1 0.4-1 1v7h-1c-0.6 0-1-0.4-1-1v-14c0-0.6 0.4-1 1-1h1v4c0 0.6 0.4 1 1 1h8c0.6 0 1-0.4 1-1s-0.4-1-1-1h-7v-3h7.6l4.4 4.4v10.6z"></path>
</symbol>
<symbol id="icon-skip-back" viewBox="0 0 24 24">
<title>skip-back</title>
<path d="M19.4 3.1c-0.3-0.2-0.8-0.1-1.1 0.1l-10 8c-0.2 0.2-0.3 0.5-0.3 0.8s0.1 0.6 0.4 0.8l10 8c0.2 0.1 0.4 0.2 0.6 0.2 0.1 0 0.3 0 0.4-0.1 0.3-0.2 0.6-0.5 0.6-0.9v-16c0-0.4-0.2-0.7-0.6-0.9zM18 17.9l-7.4-5.9 7.4-5.9v11.8z"></path>
<path d="M5 4c-0.6 0-1 0.4-1 1v14c0 0.6 0.4 1 1 1s1-0.4 1-1v-14c0-0.6-0.4-1-1-1z"></path>
</symbol>
<symbol id="icon-skip-forward" viewBox="0 0 24 24">
<title>skip-forward</title>
<path d="M5.6 3.2c-0.3-0.2-0.7-0.3-1-0.1-0.4 0.2-0.6 0.5-0.6 0.9v16c0 0.4 0.2 0.7 0.6 0.9 0.1 0.1 0.3 0.1 0.4 0.1 0.2 0 0.4-0.1 0.6-0.2l10-8c0.2-0.2 0.4-0.5 0.4-0.8s-0.1-0.6-0.4-0.8l-10-8zM6 17.9v-11.8l7.4 5.9-7.4 5.9z"></path>
<path d="M19 4c-0.6 0-1 0.4-1 1v14c0 0.6 0.4 1 1 1s1-0.4 1-1v-14c0-0.6-0.4-1-1-1z"></path>
</symbol>
<symbol id="icon-square" viewBox="0 0 24 24">
<title>square</title>
<path d="M19 2h-14c-1.7 0-3 1.3-3 3v14c0 1.7 1.3 3 3 3h14c1.7 0 3-1.3 3-3v-14c0-1.7-1.3-3-3-3zM20 19c0 0.6-0.4 1-1 1h-14c-0.6 0-1-0.4-1-1v-14c0-0.6 0.4-1 1-1h14c0.6 0 1 0.4 1 1v14z"></path>
</symbol>
<symbol id="icon-volume" viewBox="0 0 24 24">
<title>volume</title>
<path d="M11.4 4.1c-0.3-0.2-0.8-0.1-1.1 0.1l-4.7 3.8h-3.6c-0.6 0-1 0.4-1 1v6c0 0.6 0.4 1 1 1h3.6l4.7 3.8c0.2 0.1 0.4 0.2 0.6 0.2 0.1 0 0.3 0 0.4-0.1 0.3-0.2 0.6-0.5 0.6-0.9v-14c0.1-0.4-0.1-0.7-0.5-0.9zM10 16.9l-3.4-2.7c-0.2-0.1-0.4-0.2-0.6-0.2h-3v-4h3c0.2 0 0.4-0.1 0.6-0.2l3.4-2.7v9.8z"></path>
</symbol>
<symbol id="icon-volume-1" viewBox="0 0 24 24">
<title>volume-1</title>
<path d="M11.4 4.1c-0.3-0.2-0.8-0.1-1.1 0.1l-4.7 3.8h-3.6c-0.6 0-1 0.4-1 1v6c0 0.6 0.4 1 1 1h3.6l4.7 3.8c0.2 0.1 0.4 0.2 0.6 0.2 0.1 0 0.3 0 0.4-0.1 0.3-0.2 0.6-0.5 0.6-0.9v-14c0.1-0.4-0.1-0.7-0.5-0.9zM10 16.9l-3.4-2.7c-0.2-0.1-0.4-0.2-0.6-0.2h-3v-4h3c0.2 0 0.4-0.1 0.6-0.2l3.4-2.7v9.8z"></path>
<path d="M16.2 7.8c-0.4-0.4-1-0.4-1.4 0s-0.4 1 0 1.4c1.6 1.6 1.6 4.1 0 5.7-0.4 0.4-0.4 1 0 1.4 0.2 0.2 0.5 0.3 0.7 0.3s0.5-0.1 0.7-0.3c2.4-2.4 2.4-6.2 0-8.5z"></path>
</symbol>
<symbol id="icon-volume-2" viewBox="0 0 24 24">
<title>volume-2</title>
<path d="M11.4 4.1c-0.3-0.2-0.8-0.1-1.1 0.1l-4.7 3.8h-3.6c-0.6 0-1 0.4-1 1v6c0 0.6 0.4 1 1 1h3.6l4.7 3.8c0.2 0.1 0.4 0.2 0.6 0.2 0.1 0 0.3 0 0.4-0.1 0.3-0.2 0.6-0.5 0.6-0.9v-14c0.1-0.4-0.1-0.7-0.5-0.9zM10 16.9l-3.4-2.7c-0.2-0.1-0.4-0.2-0.6-0.2h-3v-4h3c0.2 0 0.4-0.1 0.6-0.2l3.4-2.7v9.8z"></path>
<path d="M14.8 7.8c-0.4 0.4-0.4 1 0 1.4 1.6 1.6 1.6 4.1 0 5.7-0.4 0.4-0.4 1 0 1.4 0.2 0.2 0.5 0.3 0.7 0.3s0.5-0.1 0.7-0.3c2.3-2.3 2.3-6.1 0-8.5-0.3-0.4-1-0.4-1.4 0z"></path>
<path d="M19.8 4.2c-0.4-0.4-1-0.4-1.4 0s-0.4 1 0 1.4c3.5 3.5 3.5 9.2 0 12.7-0.4 0.4-0.4 1 0 1.4 0.2 0.2 0.5 0.3 0.7 0.3s0.5-0.1 0.7-0.3c4.3-4.2 4.3-11.2 0-15.5z"></path>
</symbol>
<symbol id="icon-volume-x" viewBox="0 0 24 24">
<title>volume-x</title>
<path d="M11.4 4.1c-0.3-0.2-0.8-0.1-1.1 0.1l-4.7 3.8h-3.6c-0.6 0-1 0.4-1 1v6c0 0.6 0.4 1 1 1h3.6l4.7 3.8c0.2 0.1 0.4 0.2 0.6 0.2 0.1 0 0.3 0 0.4-0.1 0.3-0.2 0.6-0.5 0.6-0.9v-14c0.1-0.4-0.1-0.7-0.5-0.9zM10 16.9l-3.4-2.7c-0.2-0.1-0.4-0.2-0.6-0.2h-3v-4h3c0.2 0 0.4-0.1 0.6-0.2l3.4-2.7v9.8z"></path>
<path d="M21.4 12l2.3-2.3c0.4-0.4 0.4-1 0-1.4s-1-0.4-1.4 0l-2.3 2.3-2.3-2.3c-0.4-0.4-1-0.4-1.4 0s-0.4 1 0 1.4l2.3 2.3-2.3 2.3c-0.4 0.4-0.4 1 0 1.4 0.2 0.2 0.5 0.3 0.7 0.3s0.5-0.1 0.7-0.3l2.3-2.3 2.3 2.3c0.2 0.2 0.5 0.3 0.7 0.3s0.5-0.1 0.7-0.3c0.4-0.4 0.4-1 0-1.4l-2.3-2.3z"></path>
</symbol>
<symbol id="icon-wifi" viewBox="0 0 24 24">
<title>wifi</title>
<path d="M4.4 11.8c-0.4 0.4-0.5 1-0.1 1.4 0.2 0.2 0.5 0.4 0.8 0.4 0.2 0 0.5-0.1 0.6-0.2 3.7-3.1 9.1-3.1 12.8 0 0.4 0.4 1.1 0.3 1.4-0.1 0.4-0.4 0.3-1.1-0.1-1.4-4.5-3.8-11-3.8-15.4-0.1z"></path>
<path d="M23.2 8.2c-6.4-5.6-16.1-5.6-22.5 0-0.4 0.4-0.5 1-0.1 1.4 0.3 0.3 0.5 0.4 0.8 0.4 0.2 0 0.5-0.1 0.7-0.2 5.7-5 14.2-5 19.8 0 0.4 0.4 1 0.3 1.4-0.1 0.4-0.5 0.4-1.1-0.1-1.5z"></path>
<path d="M8 15.3c-0.5 0.3-0.6 0.9-0.2 1.4 0.3 0.4 0.9 0.6 1.4 0.2 1.7-1.2 4.1-1.2 5.8 0 0.2 0.1 0.4 0.2 0.6 0.2 0.3 0 0.6-0.1 0.8-0.4 0.3-0.5 0.2-1.1-0.2-1.4-2.6-1.7-5.8-1.7-8.2 0z"></path>
<path d="M11.3 19.3c-0.2 0.2-0.3 0.4-0.3 0.7s0.1 0.5 0.3 0.7c0.2 0.2 0.4 0.3 0.7 0.3s0.5-0.1 0.7-0.3c0.2-0.2 0.3-0.5 0.3-0.7s-0.1-0.5-0.3-0.7c-0.4-0.4-1-0.4-1.4 0z"></path>
</symbol>
<symbol id="icon-wifi-off" viewBox="0 0 24 24">
<title>wifi-off</title>
<path d="M23.7 22.3l-16.9-16.9c0 0 0 0 0 0l-5.1-5.1c-0.4-0.4-1-0.4-1.4 0s-0.4 1 0 1.4l4.1 4.1c-1.3 0.7-2.5 1.5-3.6 2.5-0.4 0.4-0.5 1-0.1 1.4 0.2 0.2 0.4 0.3 0.7 0.3 0.2 0 0.5-0.1 0.7-0.3 1.1-1 2.4-1.8 3.8-2.4l2.3 2.3c-1.4 0.5-2.7 1.2-3.9 2.1-0.4 0.4-0.5 1-0.1 1.4 0.2 0.2 0.5 0.4 0.8 0.4 0.2 0 0.5-0.1 0.6-0.2 1.2-1 2.7-1.7 4.2-2.1l2.8 2.8c-1.6-0.1-3.3 0.3-4.6 1.3-0.5 0.3-0.6 0.9-0.2 1.4 0.3 0.4 0.9 0.6 1.4 0.2 1.7-1.2 4.1-1.2 5.8 0 0.2 0.1 0.4 0.2 0.6 0.2 0.1 0 0.1 0 0.2 0l6.6 6.6c0.2 0.2 0.5 0.3 0.7 0.3s0.5-0.1 0.7-0.3c0.3-0.4 0.3-1-0.1-1.4z"></path>
<path d="M15.8 10.6c-0.2 0.5 0 1.1 0.5 1.3 0.7 0.4 1.4 0.8 2.1 1.4 0.2 0.2 0.4 0.2 0.6 0.2 0.3 0 0.6-0.1 0.8-0.4 0.4-0.4 0.3-1.1-0.1-1.4-0.8-0.6-1.6-1.2-2.5-1.6-0.5-0.2-1.1 0-1.4 0.5z"></path>
<path d="M10.8 6c4-0.3 8.1 1 11.1 3.7 0.2 0.2 0.4 0.2 0.7 0.2s0.6-0.1 0.8-0.3c0.4-0.4 0.3-1-0.1-1.4-3.4-3-8-4.6-12.6-4.2-0.6 0-1 0.5-0.9 1.1 0 0.6 0.4 1 1 0.9z"></path>
<path d="M11.3 19.3c-0.2 0.2-0.3 0.4-0.3 0.7s0.1 0.5 0.3 0.7c0.2 0.2 0.4 0.3 0.7 0.3s0.5-0.1 0.7-0.3c0.2-0.2 0.3-0.5 0.3-0.7s-0.1-0.5-0.3-0.7c-0.4-0.4-1-0.4-1.4 0z"></path>
</symbol>
<symbol id="icon-x-circle" viewBox="0 0 24 24">
<title>x-circle</title>
<path d="M12 1c-6.1 0-11 4.9-11 11s4.9 11 11 11 11-4.9 11-11-4.9-11-11-11zM12 21c-5 0-9-4-9-9s4-9 9-9c5 0 9 4 9 9s-4 9-9 9z"></path>
<path d="M15.7 8.3c-0.4-0.4-1-0.4-1.4 0l-2.3 2.3-2.3-2.3c-0.4-0.4-1-0.4-1.4 0s-0.4 1 0 1.4l2.3 2.3-2.3 2.3c-0.4 0.4-0.4 1 0 1.4 0.2 0.2 0.4 0.3 0.7 0.3s0.5-0.1 0.7-0.3l2.3-2.3 2.3 2.3c0.2 0.2 0.5 0.3 0.7 0.3s0.5-0.1 0.7-0.3c0.4-0.4 0.4-1 0-1.4l-2.3-2.3 2.3-2.3c0.4-0.4 0.4-1 0-1.4z"></path>
</symbol>
<symbol id="icon-x-square" viewBox="0 0 24 24">
<title>x-square</title>
<path d="M19 2h-14c-1.7 0-3 1.3-3 3v14c0 1.7 1.3 3 3 3h14c1.7 0 3-1.3 3-3v-14c0-1.7-1.3-3-3-3zM20 19c0 0.6-0.4 1-1 1h-14c-0.6 0-1-0.4-1-1v-14c0-0.6 0.4-1 1-1h14c0.6 0 1 0.4 1 1v14z"></path>
<path d="M15.7 8.3c-0.4-0.4-1-0.4-1.4 0l-2.3 2.3-2.3-2.3c-0.4-0.4-1-0.4-1.4 0s-0.4 1 0 1.4l2.3 2.3-2.3 2.3c-0.4 0.4-0.4 1 0 1.4 0.2 0.2 0.4 0.3 0.7 0.3s0.5-0.1 0.7-0.3l2.3-2.3 2.3 2.3c0.2 0.2 0.5 0.3 0.7 0.3s0.5-0.1 0.7-0.3c0.4-0.4 0.4-1 0-1.4l-2.3-2.3 2.3-2.3c0.4-0.4 0.4-1 0-1.4z"></path>
</symbol>
<symbol id="icon-create" viewBox="0 0 24 24">
<title>create</title>
<path d="M19 11h-6v-6c0-0.6-0.4-1-1-1s-1 0.4-1 1v6h-6c-0.6 0-1 0.4-1 1s0.4 1 1 1h6v6c0 0.6 0.4 1 1 1s1-0.4 1-1v-6h6c0.6 0 1-0.4 1-1s-0.4-1-1-1z"></path>
</symbol>
<symbol id="icon-parent-task" viewBox="0 0 24 24">
<title>parent-task</title>
<path d="M20 19h-7c-1.7 0-3-1.3-3-3v-9.6l3.3 3.3c0.2 0.2 0.4 0.3 0.7 0.3s0.5-0.1 0.7-0.3c0.4-0.4 0.4-1 0-1.4l-5-5c-0.1-0.1-0.2-0.2-0.3-0.2-0.3-0.1-0.5-0.1-0.8 0-0.1 0-0.2 0.1-0.3 0.2l-5 5c-0.4 0.4-0.4 1 0 1.4s1 0.4 1.4 0l3.3-3.3v9.6c0 2.8 2.2 5 5 5h7c0.6 0 1-0.4 1-1s-0.4-1-1-1z"></path>
</symbol>
<symbol id="icon-sub-task" viewBox="0 0 24 24">
<title>sub-task</title>
<path d="M20.9 15.4c0.1-0.2 0.1-0.5 0-0.8-0.1-0.1-0.1-0.2-0.2-0.3l-5-5c-0.4-0.4-1-0.4-1.4 0s-0.4 1 0 1.4l3.3 3.3h-9.6c-1.7 0-3-1.3-3-3v-7c0-0.6-0.4-1-1-1s-1 0.4-1 1v7c0 2.8 2.2 5 5 5h9.6l-3.3 3.3c-0.4 0.4-0.4 1 0 1.4 0.2 0.2 0.5 0.3 0.7 0.3s0.5-0.1 0.7-0.3l5-5c0.1-0.1 0.2-0.2 0.2-0.3z"></path>
</symbol>
</defs>
</svg>
